<!-- License-safe Deutsche Welle target mark approximation; trademarks remain with owners. -->
<svg fill="#0A0A0A" role="img" viewBox="0 0 24 24" xmlns="http://www.w3.org/2000/svg"><title>Deutsche Welle</title><path fill="#F5F7FB" d="M8 3.2A8.8 8.8 0 1 0 8 20.8 8.8 8.8 0 0 0 8 3.2Z"/><path fill="#111827" d="M8 5.15A6.85 6.85 0 1 0 8 18.85 6.85 6.85 0 0 0 8 5.15Z"/><path fill="#F5F7FB" d="M6.1 8.3H8.3c2.05 0 3.45 1.42 3.45 3.7s-1.4 3.7-3.45 3.7H6.1Zm2.05 1.86v3.68h.22c.73 0 1.18-.63 1.18-1.84s-.45-1.84-1.18-1.84Z"/><path fill="#F5F7FB" d="M16 3.2A8.8 8.8 0 1 0 16 20.8 8.8 8.8 0 0 0 16 3.2Z"/><path fill="#111827" d="M16 5.15A6.85 6.85 0 1 0 16 18.85 6.85 6.85 0 0 0 16 5.15Z"/><path fill="#F5F7FB" d="M12.05 8.3h2.05l.62 4.05.86-4.05h1.45l.87 4.05.61-4.05h2.04l-1.55 7.4h-1.9l-.8-3.65-.79 3.65h-1.9Z"/></svg>
