<!-- License-safe Grok target mark approximation; trademarks remain with owners. -->
<svg fill="#101820" role="img" viewBox="0 0 24 24" xmlns="http://www.w3.org/2000/svg"><title>Grok</title><path fill="#101820" d="M12 2.4 21.6 12 12 21.6 2.4 12Z"/><path fill="#F5F7FB" d="M7.25 11.1h4.1v1.76H9.4c.32.84 1.08 1.32 2.18 1.32 1.6 0 2.7-.98 2.7-2.35 0-1.38-1.08-2.36-2.62-2.36-.9 0-1.63.3-2.2.92L7.9 9.05c.94-1.05 2.2-1.57 3.78-1.57 2.72 0 4.7 1.82 4.7 4.34 0 2.56-2.02 4.42-4.78 4.42-2.58 0-4.35-1.62-4.35-3.95Z"/><path fill="#7DEBFF" d="M16.65 6.9 18.2 5.35l.98.98-1.55 1.55Z"/></svg>
