<!-- License-safe Radio Garden target mark approximation; trademarks remain with owners. -->
<svg fill="#1DB954" role="img" viewBox="0 0 24 24" xmlns="http://www.w3.org/2000/svg"><title>Radio Garden</title><path fill="#173D2E" d="M12 2.25C6.615 2.25 2.25 6.615 2.25 12S6.615 21.75 12 21.75 21.75 17.385 21.75 12 17.385 2.25 12 2.25Z"/><path fill="#34E27A" d="M12 5.15A6.85 6.85 0 0 0 5.15 12H7.2A4.8 4.8 0 0 1 12 7.2a4.8 4.8 0 0 1 4.8 4.8h2.05A6.85 6.85 0 0 0 12 5.15Z"/><path fill="#F4FFF7" d="M12 9.2A2.8 2.8 0 1 0 12 14.8 2.8 2.8 0 0 0 12 9.2Z"/><path fill="#34E27A" d="M7.1 14.3C8.02 16.48 9.83 17.72 12 17.72s3.98-1.24 4.9-3.42h-2.36c-.61.87-1.48 1.32-2.54 1.32s-1.93-.45-2.54-1.32Z"/></svg>
